<svg width="993" height="350" viewBox="0 0 993 350" fill="none" xmlns="http://www.w3.org/2000/svg">
<path d="M434.744 334.154C434.744 103.839 434.744 31.4961 434.744 24.1142" stroke="white" stroke-width="5"/>
<path d="M561.427 139.695L562.741 144.926C559.081 146.923 553.731 147.684 547.724 147.684C528.576 147.684 517.595 134.654 517.595 114.301C517.595 92.9012 528.389 79.2056 548.662 79.2056C554.669 79.2056 558.987 80.2518 562.647 81.3931L561.333 86.7192C557.297 85.4828 552.323 84.817 549.131 84.817C531.861 84.817 523.977 96.2301 523.977 113.54C523.977 130.755 532.612 142.073 549.131 142.073C552.98 142.073 557.203 141.502 561.427 139.695Z" fill="white"/>
<path d="M595.754 85.7681V146.733H589.747V85.7681H569.567V80.1567H615.934V85.7681H595.754Z" fill="white"/>
<path d="M643.095 147.684L639.435 142.929C642.532 140.361 644.503 137.698 646.38 133.323L647.037 131.801L621.789 80.1567H628.547L650.134 125.238L667.686 80.1567H673.693L651.824 134.559C649.29 140.836 647.131 144.165 643.095 147.684Z" fill="white"/>
<path d="M732.001 141.121V161.855H725.994V146.733H678.407V161.855H672.494V141.121H678.689C686.479 127.521 687.136 106.597 687.699 86.1485L687.887 80.1567H724.305V141.121H732.001ZM684.79 141.121H718.392V85.7681H693.425C693.331 86.7192 693.237 90.4284 693.237 91.3795C692.58 108.88 691.172 129.233 684.79 141.121Z" fill="white"/>
<path d="M779.648 141.121V146.733H743.606V80.1567H779.648V85.7681H749.613V109.545H777.208V115.062H749.613V141.121H779.648Z" fill="white"/>
<path d="M843.194 80.1567V146.733H837.281V115.157H800.301V146.733H794.294V80.1567H800.301V109.64H837.281V80.1567H843.194Z" fill="white"/>
<path d="M879.99 85.7681V146.733H873.983V85.7681H853.803V80.1567H900.17V85.7681H879.99Z" fill="white"/>
<path d="M916.8 111.828V141.121H923.652C938.575 141.121 943.175 134.274 943.175 125.999C943.175 117.439 938.669 111.828 924.403 111.828H916.8ZM923.746 146.733H910.793V80.1567H916.8V106.121H924.59C941.203 106.121 949.557 111.733 949.557 125.999C949.557 141.312 938.763 146.733 923.746 146.733ZM966.452 80.1567V146.733H960.539V80.1567H966.452Z" fill="white"/>
<path d="M526.605 208.353V238.217H536.179C549.507 238.217 554.575 231.655 554.575 222.905C554.575 213.869 549.695 208.353 536.367 208.353H526.605ZM526.605 243.829V269.318H520.598V202.741H536.836C551.478 202.741 560.958 208.353 560.958 222.809C560.958 236.41 551.853 243.829 536.179 243.829H526.605Z" fill="white"/>
<path d="M599.947 264.657C614.026 264.657 621.723 253.53 621.723 236.03C621.723 218.625 614.402 207.402 599.103 207.402C585.399 207.402 577.14 218.72 577.14 236.03C577.14 253.149 585.118 264.657 599.947 264.657ZM599.384 270.269C581.082 270.269 570.757 256.098 570.757 236.03C570.757 215.962 581.739 201.79 599.103 201.79C618.719 201.79 628.012 216.913 628.012 236.03C628.012 257.429 616.748 270.269 599.384 270.269Z" fill="white"/>
<path d="M683.334 262.28L684.648 267.511C680.988 269.508 675.638 270.269 669.631 270.269C650.483 270.269 639.502 257.239 639.502 236.886C639.502 215.486 650.296 201.79 670.569 201.79C676.576 201.79 680.894 202.837 684.554 203.978L683.24 209.304C679.204 208.068 674.23 207.402 671.039 207.402C653.769 207.402 645.884 218.815 645.884 236.125C645.884 253.339 654.52 264.657 671.039 264.657C674.887 264.657 679.111 264.087 683.334 262.28Z" fill="white"/>
<path d="M741.292 269.318L734.44 250.201H704.874L697.929 269.318H691.922L716.982 202.456H722.895L747.486 269.318H741.292ZM719.704 209.399L706.845 244.684H732.469L719.986 209.399H719.704Z" fill="white"/>
<path d="M770.09 208.353V269.318H764.083V208.353H743.904V202.741H790.27V208.353H770.09Z" fill="white"/>
<path d="M823.963 264.657C838.042 264.657 845.739 253.53 845.739 236.03C845.739 218.625 838.418 207.402 823.119 207.402C809.415 207.402 801.156 218.72 801.156 236.03C801.156 253.149 809.134 264.657 823.963 264.657ZM823.4 270.269C805.098 270.269 794.773 256.098 794.773 236.03C794.773 215.962 805.755 201.79 823.119 201.79C842.735 201.79 852.027 216.913 852.027 236.03C852.027 257.429 840.764 270.269 823.4 270.269Z" fill="white"/>
<path d="M922.556 202.741L929.407 269.318H923.588L918.238 214.345L899.56 269.318H893.459L874.781 214.535L869.431 269.318H863.518L870.37 202.741H876.471L896.556 262.85L916.548 202.741H922.556Z" fill="white"/>
<path d="M985.931 269.318L979.079 250.201H949.514L942.568 269.318H936.561L961.622 202.456H967.535L992.126 269.318H985.931ZM964.344 209.399L951.485 244.684H977.108L964.625 209.399H964.344Z" fill="white"/>
<path d="M595.754 85.7681V146.733H589.747V85.7681H569.567V80.1567H615.934V85.7681H595.754Z" fill="white"/>
<path d="M347.575 32.097C348.472 33.4048 348.837 35.4509 348.103 38.613C347.371 41.7665 345.616 45.6852 342.786 50.3137C337.137 59.554 327.529 71.1087 314.621 84.2203C288.836 110.414 250.247 142.461 204.966 174.115C159.684 205.769 116.391 230.962 83.0291 246.115C66.3291 253.701 52.233 258.717 41.6758 260.806C36.3876 261.852 32.1357 262.133 28.9531 261.715C25.7619 261.297 23.9922 260.233 23.0946 258.925C22.197 257.618 21.8323 255.572 22.5663 252.409C23.2983 249.256 25.0534 245.337 27.883 240.709C33.5319 231.468 43.1407 219.914 56.048 206.802C81.8332 180.609 120.422 148.562 165.704 116.908C210.985 85.2538 254.278 60.0607 287.64 44.9071C304.34 37.3218 318.436 32.3054 328.993 30.2168C334.282 29.1706 338.534 28.89 341.716 29.307C344.907 29.7252 346.677 30.7892 347.575 32.097Z" stroke="white" stroke-width="5"/>
<path d="M316.945 320.397C315.694 321.657 313.621 322.452 310.327 322.371C307.032 322.29 302.813 321.33 297.717 319.431C287.54 315.637 274.417 308.307 259.211 297.953C228.833 277.267 190.571 244.804 151.666 205.459C112.76 166.113 80.6729 127.432 60.2389 96.7312C50.0103 81.3633 42.7752 68.104 39.0367 57.8254C37.1648 52.6787 36.2221 48.4191 36.1485 45.093C36.0751 41.7686 36.8673 39.6783 38.1182 38.4185C39.369 37.1586 41.4419 36.3633 44.7356 36.4443C48.0311 36.5253 52.2498 37.4855 57.3456 39.3852C67.5224 43.1792 80.6455 50.5083 95.8517 60.8629C126.23 81.5485 164.491 114.011 203.397 153.357C242.302 192.702 274.39 231.384 294.824 262.085C305.052 277.452 312.288 290.712 316.026 300.99C317.898 306.137 318.841 310.397 318.914 313.723C318.988 317.047 318.195 319.138 316.945 320.397Z" stroke="white" stroke-width="5"/>
<path d="M155.331 157.803C151.666 151.089 145.916 145.776 138.967 142.683C132.017 139.59 124.252 138.888 116.868 140.685C109.484 142.482 102.89 146.679 98.1014 152.629C93.3125 158.579 90.594 165.953 90.3645 173.615C90.1349 181.278 92.4071 188.804 96.8312 195.035C101.255 201.266 107.586 205.857 114.849 208.101C122.112 210.345 129.904 210.118 137.026 207.454C144.149 204.79 150.206 199.838 154.266 193.359L140.133 184.338C138.033 187.689 134.899 190.25 131.215 191.628C127.531 193.006 123.501 193.123 119.744 191.963C115.988 190.802 112.713 188.427 110.425 185.204C108.136 181.981 106.961 178.089 107.08 174.125C107.199 170.162 108.605 166.348 111.082 163.27C113.559 160.193 116.97 158.022 120.789 157.092C124.608 156.163 128.624 156.526 132.219 158.126C135.814 159.726 138.788 162.474 140.683 165.947L155.331 157.803Z" fill="white"/>
<ellipse cx="15.4199" cy="15.4225" rx="15.4199" ry="15.4225" transform="matrix(0.710415 0.703783 -0.697222 0.716855 269.609 33.2056)" fill="white"/>
<path d="M219.419 250.964V266.831H225.592C232.368 266.831 236.434 264.272 236.434 258.861C236.434 253.157 232.594 250.964 225.668 250.964H219.419ZM219.645 276.483V292.497H208.352V241.311H226.496C239.746 241.311 248.103 246.649 248.103 258.422C248.103 269.976 239.52 276.483 225.442 276.483H219.645Z" fill="white"/>
</svg>
